<svg xmlns="http://www.w3.org/2000/svg" width="1200" height="520" viewBox="0 0 1200 520">
<rect width="1200" height="520" rx="28" fill="#f8fafc"/>
<text x="70" y="65" fill="#0f172a" font-family="Arial,sans-serif" font-size="28" font-weight="700">THE PORTFOLIO SYSTEM</text>
<text x="70" y="98" fill="#64748b" font-family="Arial,sans-serif" font-size="15">Five products. One engineering direction.</text>
<g font-family="Arial,sans-serif">
<rect x="70" y="145" width="320" height="125" rx="20" fill="#0f172a"/><text x="100" y="185" fill="#fff" font-size="22" font-weight="700">AGENTSTATION</text><text x="100" y="215" fill="#cbd5e1" font-size="14">Autonomous engineering</text><text x="100" y="240" fill="#94a3b8" font-size="12">Mission → artifact</text>
<rect x="440" y="145" width="320" height="125" rx="20" fill="#1e293b"/><text x="470" y="185" fill="#fff" font-size="22" font-weight="700">OAE CORE</text><text x="470" y="215" fill="#cbd5e1" font-size="14">Governed execution</text><text x="470" y="240" fill="#94a3b8" font-size="12">Control → audit</text>
<rect x="810" y="145" width="320" height="125" rx="20" fill="#334155"/><text x="840" y="185" fill="#fff" font-size="22" font-weight="700">NSOS</text><text x="840" y="215" fill="#e2e8f0" font-size="14">School operations</text><text x="840" y="240" fill="#cbd5e1" font-size="12">People → learning</text>
<rect x="255" y="330" width="320" height="125" rx="20" fill="#475569"/><text x="285" y="370" fill="#fff" font-size="22" font-weight="700">NSMS</text><text x="285" y="400" fill="#e2e8f0" font-size="14">Safety coordination</text><text x="285" y="425" fill="#cbd5e1" font-size="12">Incident → response</text>
<rect x="625" y="330" width="320" height="125" rx="20" fill="#64748b"/><text x="655" y="370" fill="#fff" font-size="22" font-weight="700">BUSINESS OS</text><text x="655" y="400" fill="#f1f5f9" font-size="14">Business operations</text><text x="655" y="425" fill="#e2e8f0" font-size="12">Workflow → execution</text>
</g>
<path d="M600 285V310M390 270L500 330M810 270L700 330" stroke="#94a3b8" stroke-width="2"/>
<text x="600" y="495" fill="#475569" font-family="Arial,sans-serif" font-size="14" text-anchor="middle">AI + Automation + Durable Workflows + Human-Controlled Systems</text>
</svg>